<svg width="1090" height="656" viewBox="0 0 1090 656" fill="none" xmlns="http://www.w3.org/2000/svg">
<g clip-path="url(#clip0)">
<path d="M566.7 4.15679C563.061 1.05562 557.648 1.61344 554.308 5.05992L553 6.40797L551.692 5.05992C548.358 1.61344 542.939 1.05562 539.3 4.15679C535.13 7.71617 534.911 14.1044 538.643 17.9627L551.493 31.2306C552.323 32.0873 553.671 32.0873 554.501 31.2306L567.35 17.9627C571.089 14.1044 570.87 7.71617 566.7 4.15679Z" fill="#FFCCE0"/>
</g>
<g clip-path="url(#clip1)">
<path d="M1086.6 429.279C1082.86 426.087 1077.29 426.661 1073.85 430.209L1072.5 431.597L1071.15 430.209C1067.72 426.661 1062.14 426.087 1058.4 429.279C1054.1 432.943 1053.88 439.519 1057.72 443.491L1070.95 457.149C1071.8 458.031 1073.19 458.031 1074.04 457.149L1087.27 443.491C1091.12 439.519 1090.9 432.943 1086.6 429.279Z" fill="#FFCCE0"/>
</g>
<g clip-path="url(#clip2)">
<path d="M583.7 626.157C580.061 623.056 574.648 623.613 571.308 627.06L570 628.408L568.692 627.06C565.358 623.613 559.939 623.056 556.3 626.157C552.13 629.716 551.911 636.104 555.643 639.963L568.493 653.231C569.323 654.087 570.671 654.087 571.501 653.231L584.35 639.963C588.089 636.104 587.87 629.716 583.7 626.157Z" fill="#FFCCE0"/>
</g>
<g clip-path="url(#clip3)">
<path d="M64.6996 565.157C61.0606 562.056 55.6485 562.613 52.3082 566.06L51 567.408L49.6918 566.06C46.3582 562.613 40.9395 562.056 37.3004 565.157C33.1301 568.716 32.911 575.104 36.643 578.963L49.4926 592.231C50.3227 593.087 51.6707 593.087 52.5008 592.231L65.3504 578.963C69.0891 575.104 68.8699 568.716 64.6996 565.157Z" fill="#FFCCE0"/>
</g>
<g clip-path="url(#clip4)">
<path d="M30.6996 113.157C27.0606 110.056 21.6485 110.613 18.3082 114.06L17 115.408L15.6918 114.06C12.3582 110.613 6.93947 110.056 3.30041 113.157C-0.869901 116.716 -1.08904 123.104 2.64299 126.963L15.4926 140.231C16.3227 141.087 17.6707 141.087 18.5008 140.231L31.3504 126.963C35.0891 123.104 34.8699 116.716 30.6996 113.157Z" fill="#FFCCE0"/>
</g>
<g clip-path="url(#clip5)">
<path d="M1016.7 34.1568C1013.06 31.0556 1007.65 31.6134 1004.31 35.0599L1003 36.408L1001.69 35.0599C998.358 31.6134 992.939 31.0556 989.3 34.1568C985.13 37.7162 984.911 44.1044 988.643 47.9627L1001.49 61.2306C1002.32 62.0873 1003.67 62.0873 1004.5 61.2306L1017.35 47.9627C1021.09 44.1044 1020.87 37.7162 1016.7 34.1568Z" fill="#FFCCE0"/>
</g>
<g clip-path="url(#clip6)">
<path d="M525.7 324.157C522.061 321.056 516.648 321.613 513.308 325.06L512 326.408L510.692 325.06C507.358 321.613 501.939 321.056 498.3 324.157C494.13 327.716 493.911 334.104 497.643 337.963L510.493 351.231C511.323 352.087 512.671 352.087 513.501 351.231L526.35 337.963C530.089 334.104 529.87 327.716 525.7 324.157Z" fill="#FFCCE0"/>
</g>
<defs>
<clipPath id="clip0">
<rect width="34" height="34" fill="white" transform="translate(536)"/>
</clipPath>
<clipPath id="clip1">
<rect width="35" height="35" fill="white" transform="translate(1055 425)"/>
</clipPath>
<clipPath id="clip2">
<rect width="34" height="34" fill="white" transform="translate(553 622)"/>
</clipPath>
<clipPath id="clip3">
<rect width="34" height="34" fill="white" transform="translate(34 561)"/>
</clipPath>
<clipPath id="clip4">
<rect width="34" height="34" fill="white" transform="translate(0 109)"/>
</clipPath>
<clipPath id="clip5">
<rect width="34" height="34" fill="white" transform="translate(986 30)"/>
</clipPath>
<clipPath id="clip6">
<rect width="34" height="34" fill="white" transform="translate(495 320)"/>
</clipPath>
</defs>
</svg>
