<svg width="1025" height="624" viewBox="0 0 1025 624" fill="none" xmlns="http://www.w3.org/2000/svg">
<g clip-path="url(#clip0)">
<path d="M31.5244 611.612C22.1535 617.169 18.0975 606.384 18.0975 606.384C12.0471 609.372 5.75328 609.458 1.1988 606.01C0.251771 605.287 1.3165 603.831 2.29294 604.577C6.0945 607.45 11.2957 607.478 16.4768 605.166C13.3462 604.255 8.24945 601.48 10.6572 593.081C19.0822 595.337 19.5135 600.882 19.1048 603.759C20.7813 602.77 22.3872 601.532 23.9492 600.047C23.9492 600.047 14.7498 595.061 19.5544 587.571C28.708 590.104 25.0912 598.928 25.0912 598.928C25.9342 598.019 27.644 595.986 27.6799 595.939C27.6799 595.939 24.732 586.837 32.8466 584.523C38.2476 592.643 29.176 596.821 29.176 596.821C29.1336 596.937 28.1381 598.242 27.6782 598.783C27.6782 598.783 34.3279 595.584 38.2799 601.529C32.0241 609.213 25.162 601.409 25.162 601.409C23.6745 602.821 22.1086 604.044 20.5103 605.064C20.5103 605.064 29.509 603.397 31.5244 611.612Z" fill="#FFCCE0"/>
</g>
<g clip-path="url(#clip1)">
<path d="M1010.52 564.612C1001.15 570.169 997.097 559.384 997.097 559.384C991.047 562.372 984.753 562.458 980.199 559.01C979.252 558.287 980.317 556.831 981.293 557.577C985.095 560.45 990.296 560.478 995.477 558.166C992.346 557.255 987.249 554.48 989.657 546.081C998.082 548.337 998.513 553.882 998.105 556.759C999.781 555.77 1001.39 554.532 1002.95 553.047C1002.95 553.047 993.75 548.061 998.554 540.571C1007.71 543.104 1004.09 551.928 1004.09 551.928C1004.93 551.019 1006.64 548.986 1006.68 548.939C1006.68 548.939 1003.73 539.837 1011.85 537.523C1017.25 545.643 1008.18 549.821 1008.18 549.821C1008.13 549.937 1007.14 551.242 1006.68 551.783C1006.68 551.783 1013.33 548.584 1017.28 554.529C1011.02 562.213 1004.16 554.409 1004.16 554.409C1002.67 555.821 1001.11 557.044 999.51 558.064C999.51 558.064 1008.51 556.397 1010.52 564.612Z" fill="#FFCCE0"/>
</g>
<g clip-path="url(#clip2)">
<path d="M708.524 36.6113C699.154 42.1687 695.097 31.3838 695.097 31.3838C689.047 34.3714 682.753 34.4581 678.199 31.0098C677.252 30.287 678.317 28.831 679.293 29.5763C683.095 32.4499 688.296 32.4776 693.477 30.1654C690.346 29.2543 685.249 26.4799 687.657 18.0809C696.082 20.3367 696.514 25.8819 696.105 28.759C697.781 27.77 699.387 26.5318 700.949 25.0463C700.949 25.0463 691.75 20.061 696.554 12.5709C705.708 15.1038 702.091 23.9282 702.091 23.9282C702.934 23.0189 704.644 20.9861 704.68 20.9391C704.68 20.9391 701.732 11.8367 709.847 9.5229C715.248 17.6432 706.176 21.8206 706.176 21.8206C706.134 21.9371 705.138 23.2414 704.678 23.7829C704.678 23.7829 711.328 20.5834 715.28 26.5285C709.024 34.2126 702.162 26.4089 702.162 26.4089C700.674 27.8212 699.109 29.0434 697.51 30.0642C697.51 30.0642 706.509 28.3972 708.524 36.6113Z" fill="#FFCCE0"/>
</g>
<g clip-path="url(#clip3)">
<path d="M41.5244 35.6113C32.1535 41.1687 28.0975 30.3838 28.0975 30.3838C22.0471 33.3714 15.7533 33.4581 11.1988 30.0098C10.2518 29.287 11.3165 27.831 12.2929 28.5763C16.0945 31.4499 21.2957 31.4776 26.4768 29.1654C23.3462 28.2543 18.2495 25.4799 20.6572 17.0809C29.0822 19.3367 29.5135 24.8819 29.1048 27.759C30.7813 26.77 32.3872 25.5318 33.9492 24.0463C33.9492 24.0463 24.7498 19.061 29.5544 11.5709C38.708 14.1038 35.0912 22.9282 35.0912 22.9282C35.9342 22.0189 37.644 19.9861 37.6799 19.9391C37.6799 19.9391 34.732 10.8367 42.8466 8.5229C48.2476 16.6432 39.176 20.8206 39.176 20.8206C39.1336 20.9371 38.1381 22.2414 37.6782 22.7829C37.6782 22.7829 44.3279 19.5834 48.2799 25.5285C42.0241 33.2126 35.162 25.4089 35.162 25.4089C33.6745 26.8212 32.1086 28.0434 30.5103 29.0642C30.5103 29.0642 39.509 27.3972 41.5244 35.6113Z" fill="#FFCCE0"/>
</g>
<defs>
<clipPath id="clip0">
<rect width="28.415" height="37.8411" fill="white" transform="translate(22.959 576) rotate(37.3528)"/>
</clipPath>
<clipPath id="clip1">
<rect width="28.415" height="37.8411" fill="white" transform="translate(1001.96 529) rotate(37.3528)"/>
</clipPath>
<clipPath id="clip2">
<rect width="28.415" height="37.8411" fill="white" transform="translate(699.959 1) rotate(37.3528)"/>
</clipPath>
<clipPath id="clip3">
<rect width="28.415" height="37.8411" fill="white" transform="translate(32.959) rotate(37.3528)"/>
</clipPath>
</defs>
</svg>
