<svg width="67" height="13" viewBox="0 0 67 13" fill="none" xmlns="http://www.w3.org/2000/svg">
<g clip-path="url(#clip0)">
<path d="M11.7381 1.58932C10.3467 0.403577 8.27735 0.616859 7.0002 1.93463L6.50001 2.45006L5.99981 1.93463C4.7252 0.616859 2.65333 0.403577 1.26192 1.58932C-0.332611 2.95026 -0.4164 5.39284 1.01055 6.86803L5.92364 11.9411C6.24102 12.2686 6.75645 12.2686 7.07383 11.9411L11.9869 6.86803C13.4164 5.39284 13.3326 2.95026 11.7381 1.58932Z" fill="#FF589B"/>
</g>
<g clip-path="url(#clip1)">
<path d="M29.7381 1.58932C28.3467 0.403577 26.2774 0.616859 25.0002 1.93463L24.5 2.45006L23.9998 1.93463C22.7252 0.616859 20.6533 0.403577 19.2619 1.58932C17.6674 2.95026 17.5836 5.39284 19.0106 6.86803L23.9236 11.9411C24.241 12.2686 24.7565 12.2686 25.0738 11.9411L29.9869 6.86803C31.4164 5.39284 31.3326 2.95026 29.7381 1.58932Z" fill="#FF589B"/>
</g>
<g clip-path="url(#clip2)">
<path d="M47.7381 1.58932C46.3467 0.403577 44.2774 0.616859 43.0002 1.93463L42.5 2.45006L41.9998 1.93463C40.7252 0.616859 38.6533 0.403577 37.2619 1.58932C35.6674 2.95026 35.5836 5.39284 37.0106 6.86803L41.9236 11.9411C42.241 12.2686 42.7565 12.2686 43.0738 11.9411L47.9869 6.86803C49.4164 5.39284 49.3326 2.95026 47.7381 1.58932Z" fill="#FF589B"/>
</g>
<g clip-path="url(#clip3)">
<path d="M65.7381 1.58932C64.3467 0.403577 62.2774 0.616859 61.0002 1.93463L60.5 2.45006L59.9998 1.93463C58.7252 0.616859 56.6533 0.403577 55.2619 1.58932C53.6674 2.95026 53.5836 5.39284 55.0106 6.86803L59.9236 11.9411C60.241 12.2686 60.7565 12.2686 61.0738 11.9411L65.9869 6.86803C67.4164 5.39284 67.3326 2.95026 65.7381 1.58932Z" fill="#FF589B"/>
</g>
<defs>
<clipPath id="clip0">
<rect width="13" height="13" fill="white"/>
</clipPath>
<clipPath id="clip1">
<rect width="13" height="13" fill="white" transform="translate(18)"/>
</clipPath>
<clipPath id="clip2">
<rect width="13" height="13" fill="white" transform="translate(36)"/>
</clipPath>
<clipPath id="clip3">
<rect width="13" height="13" fill="white" transform="translate(54)"/>
</clipPath>
</defs>
</svg>
