<svg width="34" height="34" viewBox="0 0 34 34" fill="none" xmlns="http://www.w3.org/2000/svg">
<g filter="url(#filter0_b)">
<path d="M26.732 33V12.496L18.724 27.764H15.336L7.328 12.496V33H1.256V1.76H7.768L17.008 19.536L26.336 1.76H32.804V33H26.732Z" fill="url(#paint0_linear)"/>
<path d="M26.732 33H25.732V34H26.732V33ZM26.732 12.496H27.732L25.8464 12.0315L26.732 12.496ZM18.724 27.764V28.764H19.3287L19.6096 28.2285L18.724 27.764ZM15.336 27.764L14.4504 28.2285L14.7313 28.764H15.336V27.764ZM7.328 12.496L8.21358 12.0315L6.328 12.496H7.328ZM7.328 33V34H8.328V33H7.328ZM1.256 33H0.256V34H1.256V33ZM1.256 1.76V0.759998H0.256V1.76H1.256ZM7.768 1.76L8.65529 1.29878L8.37523 0.759998H7.768V1.76ZM17.008 19.536L16.1207 19.9972L17.0038 21.6961L17.8935 20.0007L17.008 19.536ZM26.336 1.76V0.759998H25.7314L25.4505 1.29534L26.336 1.76ZM32.804 1.76H33.804V0.759998H32.804V1.76ZM32.804 33V34H33.804V33H32.804ZM27.732 33V12.496H25.732V33H27.732ZM25.8464 12.0315L17.8384 27.2995L19.6096 28.2285L27.6176 12.9605L25.8464 12.0315ZM18.724 26.764H15.336V28.764H18.724V26.764ZM16.2216 27.2995L8.21358 12.0315L6.44242 12.9605L14.4504 28.2285L16.2216 27.2995ZM6.328 12.496V33H8.328V12.496H6.328ZM7.328 32H1.256V34H7.328V32ZM2.256 33V1.76H0.256V33H2.256ZM1.256 2.76H7.768V0.759998H1.256V2.76ZM6.88071 2.22121L16.1207 19.9972L17.8953 19.0748L8.65529 1.29878L6.88071 2.22121ZM17.8935 20.0007L27.2215 2.22466L25.4505 1.29534L16.1225 19.0713L17.8935 20.0007ZM26.336 2.76H32.804V0.759998H26.336V2.76ZM31.804 1.76V33H33.804V1.76H31.804ZM32.804 32H26.732V34H32.804V32Z" fill="url(#paint1_linear)"/>
</g>
<defs>
<filter id="filter0_b" x="-49.744" y="-49.24" width="133.548" height="133.24" filterUnits="userSpaceOnUse" color-interpolation-filters="sRGB">
<feFlood flood-opacity="0" result="BackgroundImageFix"/>
<feGaussianBlur in="BackgroundImage" stdDeviation="25"/>
<feComposite in2="SourceAlpha" operator="in" result="effect1_backgroundBlur"/>
<feBlend mode="normal" in="SourceGraphic" in2="effect1_backgroundBlur" result="shape"/>
</filter>
<linearGradient id="paint0_linear" x1="17.5" y1="-6" x2="17.5" y2="41" gradientUnits="userSpaceOnUse">
<stop stop-color="#575988" stop-opacity="0.1"/>
<stop offset="1" stop-color="#575988" stop-opacity="0.6"/>
</linearGradient>
<linearGradient id="paint1_linear" x1="17.5" y1="-6" x2="17.5" y2="41" gradientUnits="userSpaceOnUse">
<stop stop-color="#575988" stop-opacity="0.1"/>
<stop offset="1" stop-color="#575988" stop-opacity="0.6"/>
</linearGradient>
</defs>
</svg>
